<svg width="32" height="32" viewBox="0 0 32 32" fill="none" xmlns="http://www.w3.org/2000/svg">
  <!-- CharismaAI Logo - Brain with Neural Network -->
  <defs>
    <linearGradient id="brainGradient" x1="0%" y1="0%" x2="100%" y2="100%">
      <stop offset="0%" style="stop-color:#8b5cf6;stop-opacity:1" />
      <stop offset="50%" style="stop-color:#06b6d4;stop-opacity:1" />
      <stop offset="100%" style="stop-color:#10b981;stop-opacity:1" />
    </linearGradient>
    <filter id="glow">
      <feGaussianBlur stdDeviation="1" result="coloredBlur"/>
      <feMerge> 
        <feMergeNode in="coloredBlur"/>
        <feMergeNode in="SourceGraphic"/>
      </feMerge>
    </filter>
  </defs>
  
  <!-- Background circle -->
  <circle cx="16" cy="16" r="15" fill="url(#brainGradient)" opacity="0.1"/>
  
  <!-- Brain outline -->
  <path d="M8 12c0-4 3-7 7-7s7 3 7 7c1 0 2 1 2 2s-1 2-2 2c0 3-2 5-4 6-1 1-2 1-3 1s-2 0-3-1c-2-1-4-3-4-6 0 0-1-1-1-2s1-2 1-2z" 
        fill="url(#brainGradient)" 
        filter="url(#glow)" 
        opacity="0.9"/>
  
  <!-- Neural connections -->
  <g stroke="url(#brainGradient)" stroke-width="1" fill="none" opacity="0.7">
    <!-- Left hemisphere connections -->
    <path d="M10 14 L12 16 L10 18"/>
    <path d="M11 15 L13 17"/>
    <path d="M9 16 L11 18"/>
    
    <!-- Right hemisphere connections -->
    <path d="M22 14 L20 16 L22 18"/>
    <path d="M21 15 L19 17"/>
    <path d="M23 16 L21 18"/>
    
    <!-- Central connections -->
    <path d="M14 13 L18 13"/>
    <path d="M15 16 L17 16"/>
    <path d="M14 19 L18 19"/>
  </g>
  
  <!-- Neural nodes -->
  <g fill="url(#brainGradient)">
    <circle cx="10" cy="14" r="1"/>
    <circle cx="12" cy="16" r="1"/>
    <circle cx="10" cy="18" r="1"/>
    <circle cx="22" cy="14" r="1"/>
    <circle cx="20" cy="16" r="1"/>
    <circle cx="22" cy="18" r="1"/>
    <circle cx="16" cy="13" r="1"/>
    <circle cx="16" cy="16" r="1.5"/>
    <circle cx="16" cy="19" r="1"/>
  </g>
  
  <!-- AI spark -->
  <g fill="#fbbf24" opacity="0.8">
    <circle cx="20" cy="10" r="1">
      <animate attributeName="opacity" values="0.8;1;0.8" dur="2s" repeatCount="indefinite"/>
    </circle>
    <circle cx="12" cy="22" r="0.8">
      <animate attributeName="opacity" values="0.6;1;0.6" dur="1.5s" repeatCount="indefinite"/>
    </circle>
    <circle cx="24" cy="20" r="0.6">
      <animate attributeName="opacity" values="0.4;1;0.4" dur="1.8s" repeatCount="indefinite"/>
    </circle>
  </g>
</svg>